<svg width="41" height="9" viewBox="0 0 41 9" fill="none" xmlns="http://www.w3.org/2000/svg">
<path d="M4.0515 4.24593C16.3976 -1.11118 28.5192 -1.29916 41 3.11811C40.1021 4.10494 39.3389 3.72902 38.7553 3.54105C34.2658 2.27226 29.6416 2.13127 25.0623 1.9433C18.4628 1.66135 12.2224 3.25909 6.11666 5.84367C5.8473 5.93765 5.62282 6.12562 5.08408 6.50155C8.18183 7.15944 11.2796 6.03163 13.9733 7.34741C13.9284 7.53538 13.9284 7.77035 13.8835 7.95832C11.8632 8.09929 9.79805 8.24027 7.77777 8.42824C5.7575 8.61621 3.78213 8.85116 1.76186 8.99214C0.280331 9.08612 -0.348198 8.33425 0.19054 6.92448C0.863964 5.09178 1.80676 3.40007 2.65976 1.66136C2.74955 1.47339 2.88423 1.23843 3.06381 1.14444C3.55766 0.956475 4.0515 0.909474 4.59024 0.768497C4.68003 1.23842 4.9045 1.75533 4.85961 2.17826C4.76982 2.74217 4.45555 3.2121 4.0515 4.24593Z" fill="#151515"/>
</svg>
