<svg width="471" height="408" viewBox="0 0 471 408" fill="none" xmlns="http://www.w3.org/2000/svg">
<g id="No Results">
<g id="search">
<g id="documents" filter="url(#filter0_d_1_1567)">
<path id="Fill 1" fill-rule="evenodd" clip-rule="evenodd" d="M278.665 347.264H80.2663C66.3021 347.264 54.8716 335.752 54.8716 321.682V37.576C54.8716 23.5063 66.3021 12 80.2663 12H278.665C292.635 12 304.065 23.5063 304.065 37.576V321.682C304.065 335.752 292.635 347.264 278.665 347.264Z" fill="#E7E8EF"/>
<path id="Fill 3" fill-rule="evenodd" clip-rule="evenodd" d="M261.728 359.411H63.3298C49.3655 359.411 37.9351 347.899 37.9351 333.829V49.7232C37.9351 35.6535 49.3655 24.1472 63.3298 24.1472H261.728C275.698 24.1472 287.129 35.6535 287.129 49.7232V333.829C287.129 347.899 275.698 359.411 261.728 359.411Z" fill="#F5F6F9"/>
<path id="Fill 5" fill-rule="evenodd" clip-rule="evenodd" d="M245.256 369.001H46.4472C32.4541 369.001 21 357.536 21 343.525V60.5953C21 46.5839 32.4541 35.1253 46.4472 35.1253H245.256C259.255 35.1253 270.709 46.5839 270.709 60.5953V343.525C270.709 357.536 259.255 369.001 245.256 369.001Z" fill="#D8DBEA"/>
<path id="Fill 8" fill-rule="evenodd" clip-rule="evenodd" d="M245.256 369.001H46.4472C32.4541 369.001 21 357.536 21 343.525V60.5953C21 46.5839 32.4541 35.1253 46.4472 35.1253H245.256C259.255 35.1253 270.709 46.5839 270.709 60.5953V343.525C270.709 357.536 259.255 369.001 245.256 369.001Z" fill="white"/>
<path id="Fill 11" fill-rule="evenodd" clip-rule="evenodd" d="M216.599 121.323H69.7547C65.5611 121.323 62.1284 118.044 62.1284 114.038C62.1284 110.027 65.5611 106.748 69.7547 106.748H216.599C220.793 106.748 224.225 110.027 224.225 114.038C224.225 118.044 220.793 121.323 216.599 121.323Z" fill="#E7E8EF"/>
<path id="Fill 13" fill-rule="evenodd" clip-rule="evenodd" d="M216.599 165.053H69.7547C65.5611 165.053 62.1284 161.774 62.1284 157.769C62.1284 153.757 65.5611 150.479 69.7547 150.479H216.599C220.793 150.479 224.225 153.757 224.225 157.769C224.225 161.774 220.793 165.053 216.599 165.053Z" fill="#E7E8EF"/>
<path id="Fill 15" fill-rule="evenodd" clip-rule="evenodd" d="M216.599 208.783H69.7547C65.5611 208.783 62.1284 205.504 62.1284 201.498C62.1284 197.493 65.5611 194.208 69.7547 194.208H216.599C220.793 194.208 224.225 197.493 224.225 201.498C224.225 205.504 220.793 208.783 216.599 208.783Z" fill="#E7E8EF"/>
<path id="Fill 17" fill-rule="evenodd" clip-rule="evenodd" d="M216.599 252.513H69.7547C65.5611 252.513 62.1284 249.234 62.1284 245.229C62.1284 241.217 65.5611 237.939 69.7547 237.939H216.599C220.793 237.939 224.225 241.217 224.225 245.229C224.225 249.234 220.793 252.513 216.599 252.513Z" fill="#E7E8EF"/>
<path id="Fill 19" fill-rule="evenodd" clip-rule="evenodd" d="M146.405 296.243H69.7873C65.5758 296.243 62.1284 292.965 62.1284 288.959C62.1284 284.948 65.5758 281.669 69.7873 281.669H146.405C150.617 281.669 154.064 284.948 154.064 288.959C154.064 292.965 150.617 296.243 146.405 296.243Z" fill="#E7E8EF"/>
</g>
<g id="search_2">
<path id="Fill 21" fill-rule="evenodd" clip-rule="evenodd" d="M301.05 239.728C271.687 269.209 226.23 272.535 193.228 249.774C189.01 246.813 184.996 243.487 181.253 239.728C179.325 237.8 177.509 235.809 175.797 233.714C172.374 229.529 169.376 225.065 166.919 220.454C162.591 212.665 159.648 204.4 158.041 195.857C152.856 169.066 160.608 140.228 181.253 119.507C201.946 98.7242 230.669 90.9909 257.354 96.1464C265.857 97.8093 274.095 100.764 281.853 105.06C286.452 107.583 290.836 110.593 295.01 114.03C297.091 115.742 299.074 117.572 300.995 119.507C304.745 123.265 308.106 127.29 311 131.53C333.677 164.658 330.358 210.304 301.05 239.728Z" fill="white" fill-opacity="0.1"/>
<path id="Fill 23" fill-rule="evenodd" clip-rule="evenodd" d="M292.834 233.922C262.286 264.604 212.78 264.598 182.226 233.922C151.712 203.281 151.712 153.563 182.266 122.887C212.78 92.2457 262.286 92.2457 292.8 122.887C323.348 153.563 323.348 203.281 292.834 233.922ZM308.51 107.126C269.299 67.7512 205.758 67.7512 166.547 107.126C127.341 146.495 127.307 210.341 166.513 249.716C202.2 285.54 258.135 288.771 297.477 259.357C301.319 256.48 305.02 253.255 308.55 249.716C312.074 246.171 315.286 242.455 318.145 238.597C347.437 199.085 344.191 142.956 308.51 107.126Z" fill="#E7E8EF"/>
<path id="Fill 25" fill-rule="evenodd" clip-rule="evenodd" d="M462.826 398.14L461.18 399.793C450.289 410.735 432.455 410.735 421.558 399.793L320.999 298.814L362.266 257.374L462.826 358.354C473.723 369.296 473.723 387.198 462.826 398.14Z" fill="#3626A7"/>
<path id="Fill 27" fill-rule="evenodd" clip-rule="evenodd" d="M320.316 235.509L350.032 265.349L328.935 286.528L299.225 256.688C303.146 253.752 306.917 250.461 310.524 246.85C314.121 243.239 317.398 239.447 320.316 235.509Z" fill="#E7E8EF"/>
<path id="Fill 29" fill-rule="evenodd" clip-rule="evenodd" d="M461.321 357.112L420.316 398.282L412.934 390.864L453.933 349.693L461.321 357.112Z" fill="#867DCA"/>
<path id="Fill 31" fill-rule="evenodd" clip-rule="evenodd" d="M364.547 258.8L322.419 301.104L316.16 294.82L358.288 252.515L364.547 258.8Z" fill="#867DCA"/>
<path id="Fill 33" fill-rule="evenodd" clip-rule="evenodd" d="M272.611 112.333L169.296 216.073C165.405 209.071 162.759 201.641 161.32 193.96L250.588 104.319C258.232 105.819 265.637 108.47 272.611 112.333Z" fill="white" fill-opacity="0.5"/>
<path id="Fill 35" fill-rule="evenodd" clip-rule="evenodd" d="M306.481 136.991L194.787 242.797C190.787 240.153 186.979 237.177 183.429 233.814C181.601 232.082 179.873 230.307 178.255 228.431L291.311 121.325C293.29 122.863 295.17 124.5 296.992 126.232C300.543 129.595 303.737 133.196 306.481 136.991Z" fill="white" fill-opacity="0.5"/>
</g>
</g>
</g>
<defs>
<filter id="filter0_d_1_1567" x="1.56729" y="2.28364" width="321.93" height="395.866" filterUnits="userSpaceOnUse" color-interpolation-filters="sRGB">
<feFlood flood-opacity="0" result="BackgroundImageFix"/>
<feColorMatrix in="SourceAlpha" type="matrix" values="0 0 0 0 0 0 0 0 0 0 0 0 0 0 0 0 0 0 127 0" result="hardAlpha"/>
<feOffset dy="3.23879"/>
<feGaussianBlur stdDeviation="3.23879"/>
<feComposite in2="hardAlpha" operator="out"/>
<feColorMatrix type="matrix" values="0 0 0 0 0.486275 0 0 0 0 0.466667 0 0 0 0 0.545098 0 0 0 0.25 0"/>
<feBlend mode="normal" in2="BackgroundImageFix" result="effect1_dropShadow_1_1567"/>
<feBlend mode="normal" in="SourceGraphic" in2="effect1_dropShadow_1_1567" result="shape"/>
</filter>
</defs>
</svg>
