<svg width="56" height="56" viewBox="0 0 56 56" fill="none" xmlns="http://www.w3.org/2000/svg">
<circle cx="28" cy="28" r="28" fill="#C5BEF9"/>
<path fill-rule="evenodd" clip-rule="evenodd" d="M31.6347 18.1243C31.9618 17.2919 33.1377 17.2919 33.4648 18.1243L33.8928 19.2135L34.9775 19.6429C35.8068 19.9712 35.8068 21.1471 34.9775 21.4754L33.8928 21.9048L33.4648 22.994C33.1377 23.8265 31.9618 23.8265 31.6347 22.994L31.2067 21.9048L30.122 21.4754C29.2927 21.1471 29.2927 19.9712 30.122 19.6429L31.2067 19.2135L31.6347 18.1243ZM32.5497 18.5299L32.9645 19.5853C33.0641 19.8389 33.2644 20.0403 33.5181 20.1407L34.5752 20.5592L33.5181 20.9776C33.2644 21.0781 33.0641 21.2794 32.9645 21.533L32.5497 22.5885L32.135 21.533C32.0354 21.2794 31.8351 21.0781 31.5813 20.9776L30.5243 20.5592L31.5813 20.1407C31.8351 20.0403 32.0354 19.8389 32.135 19.5853L32.5497 18.5299Z" fill="#3626A7"/>
<path fill-rule="evenodd" clip-rule="evenodd" d="M19.3142 19.3142C20.7331 17.8953 23.0337 17.8953 24.4526 19.3142L36.6858 31.5474C38.1047 32.9663 38.1047 35.2669 36.6858 36.6858C35.2669 38.1047 32.9663 38.1047 31.5474 36.6858L19.3142 24.4526C17.8953 23.0337 17.8953 20.7331 19.3142 19.3142ZM23.3919 20.3749C22.5588 19.5417 21.208 19.5417 20.3749 20.3749C19.5417 21.208 19.5417 22.5588 20.3749 23.3919L21.9611 24.9782L24.9782 21.9611L23.3919 20.3749ZM32.6081 35.6251L23.0218 26.0389L26.0389 23.0218L35.6251 32.6081C36.4583 33.4412 36.4583 34.792 35.6251 35.6251C34.792 36.4583 33.4412 36.4583 32.6081 35.6251Z" fill="#3626A7"/>
<path fill-rule="evenodd" clip-rule="evenodd" d="M37.332 24.9466C37.0049 24.1142 35.8289 24.1142 35.5018 24.9466L35.3473 25.3399L34.956 25.4948C34.1266 25.8231 34.1266 26.999 34.956 27.3273L35.3473 27.4822L35.5018 27.8755C35.8289 28.7079 37.0049 28.7079 37.332 27.8755L37.4865 27.4822L37.8778 27.3273C38.7071 26.999 38.7071 25.8231 37.8778 25.4948L37.4865 25.3399L37.332 24.9466ZM36.4169 25.3522L36.2756 25.7117C36.176 25.9652 35.9757 26.1666 35.7219 26.2671L35.3583 26.411L35.7219 26.555C35.9757 26.6555 36.176 26.8568 36.2756 27.1104L36.4169 27.4699L36.5582 27.1104C36.6578 26.8568 36.858 26.6555 37.1118 26.555L37.4755 26.411L37.1118 26.2671C36.858 26.1666 36.6578 25.9652 36.5582 25.7117L36.4169 25.3522Z" fill="#3626A7"/>
<path fill-rule="evenodd" clip-rule="evenodd" d="M20.6678 31.1243C20.9949 30.2919 22.1709 30.2919 22.498 31.1243L22.6525 31.5176L23.0438 31.6725C23.8732 32.0008 23.8732 33.1767 23.0438 33.505L22.6525 33.6599L22.498 34.0532C22.1709 34.8856 20.9949 34.8856 20.6678 34.0532L20.5133 33.6599L20.122 33.505C19.2927 33.1767 19.2927 32.0008 20.122 31.6725L20.5133 31.5176L20.6678 31.1243ZM21.4416 31.8894L21.5829 31.5299L21.7242 31.8894C21.8238 32.143 22.0241 32.3443 22.2778 32.4448L22.6415 32.5888L22.2778 32.7327C22.0241 32.8332 21.8238 33.0345 21.7242 33.2881L21.5829 33.6476L21.4416 33.2881C21.342 33.0345 21.1417 32.8332 20.888 32.7327L20.5243 32.5888L20.888 32.4448C21.1417 32.3443 21.342 32.143 21.4416 31.8894Z" fill="#3626A7"/>
</svg>
